<svg height="300px" width="300px" fill="#000000" xmlns:dc="http://purl.org/dc/elements/1.1/" xmlns:cc="http://creativecommons.org/ns#" xmlns:rdf="http://www.w3.org/1999/02/22-rdf-syntax-ns#" xmlns:svg="http://www.w3.org/2000/svg" xmlns="http://www.w3.org/2000/svg" xmlns:sodipodi="http://sodipodi.sourceforge.net/DTD/sodipodi-0.dtd" xmlns:inkscape="http://www.inkscape.org/namespaces/inkscape" version="1.1" x="0px" y="0px" viewBox="0 0 100 100"><g transform="translate(0,-952.36218)"><path style="text-indent:0;text-transform:none;direction:ltr;block-progression:tb;baseline-shift:baseline;color:#FFFFFF;enable-background:accumulate;" d="m 11,973.36219 c -2.71811,0 -5,2.2819 -5,5 l 0,48.00001 c 0,2.7181 2.28189,5 5,5 l 78,0 c 2.71811,0 5,-2.2819 5,-5 l 0,-48.00002 c 0,-2.7181 -2.28189,-5 -5,-5 l -78,0 z m 5.75,6 66.5,0 -32.1875,28.75001 c -0.43851,0.3919 -1.68649,0.3919 -2.125,0 L 16.75,979.36219 z M 12,983.14339 34.46875,1003.2372 12,1021.831 12,983.14339 z m 76,0 0,38.68761 L 65.53125,1003.2372 88,983.14339 z m -49,24.12501 5.9375,5.3126 c 2.91309,2.6034 7.21191,2.6034 10.125,0 l 5.9375,-5.3126 21.875,18.0938 -65.75,0 L 39,1007.2684 z" fill="#FFFFFF" fill-opacity="1" stroke="none" marker="none" visibility="visible" display="inline" overflow="visible"/></g></svg>
